<?xml version="1.0" encoding="UTF-8"?>
<svg xmlns="http://www.w3.org/2000/svg" version="1.1" viewBox="0 0 900 698.26">
  <defs>
    <style>
      .cls-1 {
        fill: #246d75;
      }

      .cls-2 {
        fill: #c4161c;
      }
    </style>
  </defs>
  <!-- Generator: Adobe Illustrator 28.7.0, SVG Export Plug-In . SVG Version: 1.2.0 Build 136)  -->
  <g>
    <g id="Ebene_1">
      <g>
        <rect class="cls-2" x="297.01" y="256.16" width="12.42" height="156.35" rx="6.21" ry="6.21"/>
        <rect class="cls-2" x="256.35" y="302.52" width="12.42" height="63.63" rx="6.21" ry="6.21"/>
        <rect class="cls-2" x="337.67" y="311.64" width="12.42" height="45.39" rx="6.21" ry="6.21"/>
        <rect class="cls-2" x="378.33" y="272.32" width="12.42" height="124.02" rx="6.21" ry="6.21"/>
        <path class="cls-1" d="M431.33,262.92c-.01-.09-.03-.17-.06-.23-.49-2.94-3.04-5.18-6.12-5.18-3.43,0-6.21,2.78-6.21,6.21v156.1c-5.02-1.51-11.02-1.53-17.07.3-13.39,4.05-22,15.57-19.2,25.75,2.78,10.19,15.89,15.17,29.3,11.12,5.12-1.54,9.53-4.17,12.89-7.42,3.75-3.62,5.46-7.93,6.1-12.34.31-1.65.42-3.33.4-4.99,0-.01,0-.09,0-.17,0-.05,0-.1,0-.16v-124.22c30.23,9.28,43.19,39.79,31.63,68.96-.35,1.01.16,2.12,1.15,2.49.99.39,2.1-.11,2.51-1.09,29.87-71.55-29.99-75.96-35.31-115.15Z"/>
        <rect class="cls-1" x="398.8" y="290.5" width="12.42" height="87.39" rx="6.21" ry="6.21"/>
        <rect class="cls-1" x="317.34" y="276.53" width="12.42" height="115.6" rx="6.21" ry="6.21"/>
        <path class="cls-1" d="M325.64,235.9l-17.09-12.72c-3.28-2.44-7.63-2.36-10.83.19l-17.15,13.67c-2.42,1.93-3.87,5.08-3.87,8.42v39.75c0,.08-.01.16-.01.24v97.75c0,3.43,2.78,6.21,6.21,6.21s6.21-2.78,6.21-6.21v-97.75c0-.07,0-.15-.01-.22v-39.13l14.23-11.35,14.02,10.44v7.92c0,3.42,2.78,6.2,6.2,6.2s6.2-2.78,6.2-6.2v-8.6c0-3.47-1.54-6.69-4.12-8.61Z"/>
        <path class="cls-1" d="M407.21,248.43l-17.15-13.67c-3.2-2.56-7.56-2.64-10.84-.19l-17.09,12.72c-2.58,1.92-4.12,5.14-4.12,8.62v40.92s0,.01,0,.02v74.97c0,3.43,2.78,6.21,6.21,6.21s6.21-2.78,6.21-6.21v-74.97s0,0,0-.01v-40.25l14.01-10.43,14.22,11.34v6.99c0,3.43,2.78,6.21,6.21,6.21s6.21-2.78,6.21-6.21v-7.63c0-3.34-1.45-6.5-3.87-8.43Z"/>
        <g>
          <g>
            <path class="cls-1" d="M461.07,412.49c1.31.85,2.6,1.51,3.88,2,1.28.48,2.48.73,3.59.73s1.88-.15,2.43-.45c.56-.3.83-.76.83-1.36,0-.31-.12-.56-.36-.74-.24-.18-.56-.33-.96-.45-.4-.12-.87-.22-1.4-.29-.53-.07-1.08-.17-1.63-.29-.53-.1-1.16-.21-1.87-.34s-1.45-.33-2.2-.58c-.75-.25-1.5-.58-2.23-.96s-1.4-.88-1.98-1.49c-.58-.6-1.05-1.33-1.4-2.16s-.53-1.82-.53-2.96c0-1.67.33-3.05.98-4.14s1.48-1.95,2.49-2.6c1-.64,2.12-1.09,3.36-1.34s2.43-.38,3.59-.38c2.03,0,3.85.3,5.46.89,1.61.59,3.15,1.46,4.63,2.6.19.17.3.38.33.62s-.04.46-.18.65l-2.83,4.03c-.15.19-.34.31-.58.36s-.46,0-.65-.15c-1.23-.77-2.38-1.33-3.45-1.65-1.07-.33-2.05-.49-2.94-.49-.27,0-.58,0-.93.02-.35.01-.68.06-1,.14-.32.08-.58.22-.78.42-.21.19-.31.46-.31.8s.25.64.76.91c.51.27,1.09.5,1.74.69.65.19,1.28.34,1.89.45.6.11.99.18,1.16.2.87.17,1.83.42,2.87.74,1.04.33,2.01.81,2.92,1.45.91.64,1.67,1.48,2.29,2.5s.92,2.32.92,3.87c0,1.45-.25,2.7-.76,3.76-.51,1.05-1.22,1.92-2.12,2.6-.91.68-2,1.18-3.27,1.51-1.27.33-2.68.49-4.23.49-1.26,0-2.43-.1-3.52-.31-1.09-.21-2.11-.49-3.05-.85-.94-.36-1.82-.79-2.63-1.29-.81-.5-1.55-1.02-2.23-1.58-.19-.15-.3-.34-.33-.6-.02-.25.04-.48.18-.67l2.8-4.03c.14-.19.34-.31.58-.36.24-.05.46-.01.65.11Z"/>
            <path class="cls-1" d="M497.95,401.71h-5.08c-.24,0-.45.08-.62.25s-.25.38-.25.62v18.15c0,.24-.08.45-.24.62s-.37.25-.63.25h-5.45c-.24,0-.45-.08-.62-.25-.17-.17-.25-.38-.25-.62v-18.15c0-.24-.08-.45-.24-.62-.16-.17-.37-.25-.64-.25h-5.15c-.24,0-.45-.08-.62-.25-.17-.17-.25-.38-.25-.62v-4.94c0-.24.08-.45.25-.62s.38-.25.62-.25h19.17c.27,0,.48.08.63.25.16.17.24.38.24.62v4.94c0,.24-.08.45-.24.62s-.37.25-.63.25Z"/>
            <path class="cls-1" d="M505.18,395.86c.1-.22.26-.41.49-.56.23-.16.48-.24.74-.24h5.08c.24,0,.48.08.71.24.23.16.39.34.49.56l10.6,24.68c.1.22.08.45-.05.69-.13.24-.39.36-.78.36h-6.21c-.27,0-.51-.08-.74-.24-.23-.16-.41-.34-.53-.56l-.98-2.18c-.12-.22-.3-.41-.53-.56-.23-.16-.47-.24-.71-.24h-7.66c-.27,0-.51.08-.74.24-.23.16-.39.34-.49.56l-1.02,2.18c-.1.22-.26.41-.49.56-.23.16-.47.24-.71.24h-6.24c-.12,0-.25-.02-.38-.07s-.24-.12-.33-.22c-.08-.1-.14-.22-.16-.36-.02-.15.01-.31.11-.51l10.53-24.58ZM507.32,411.65h3.23c.24,0,.42-.08.53-.24.11-.16.1-.34-.02-.56-.24-.6-.53-1.31-.87-2.12s-.65-1.57-.94-2.27c-.1-.22-.21-.33-.33-.33s-.23.11-.33.33l-1.82,4.39c-.1.22-.1.41,0,.56.1.16.28.24.54.24Z"/>
            <path class="cls-1" d="M524.45,420.73v-24.83c0-.24.08-.45.25-.62s.38-.25.62-.25h9.91c3.8,0,6.91,1.11,9.33,3.34,1.31,1.21,2.3,2.65,2.98,4.32.68,1.67,1.02,3.55,1.02,5.63s-.34,3.96-1.02,5.64c-.68,1.68-1.67,3.13-2.98,4.34-1.21,1.09-2.6,1.91-4.16,2.47-1.56.56-3.29.83-5.17.83h-9.91c-.24,0-.45-.08-.62-.25-.17-.17-.25-.38-.25-.62ZM532.51,414.92h2.72c.68,0,1.38-.08,2.11-.25.73-.17,1.38-.49,1.96-.96s1.06-1.14,1.43-2,.56-1.98.56-3.36-.19-2.5-.56-3.36c-.38-.86-.86-1.52-1.45-2-.59-.47-1.25-.79-1.96-.96-.71-.17-1.41-.25-2.09-.25h-2.72c-.24,0-.45.08-.62.25s-.25.38-.25.62v11.4c0,.24.08.45.25.62.17.17.38.25.62.25Z"/>
            <path class="cls-1" d="M568.12,401.71h-5.08c-.24,0-.45.08-.62.25s-.25.38-.25.62v18.15c0,.24-.08.45-.24.62s-.37.25-.63.25h-5.45c-.24,0-.45-.08-.62-.25-.17-.17-.25-.38-.25-.62v-18.15c0-.24-.08-.45-.24-.62-.16-.17-.37-.25-.64-.25h-5.15c-.24,0-.45-.08-.62-.25-.17-.17-.25-.38-.25-.62v-4.94c0-.24.08-.45.25-.62s.38-.25.62-.25h19.17c.27,0,.48.08.63.25.16.17.24.38.24.62v4.94c0,.24-.08.45-.24.62s-.37.25-.63.25Z"/>
          </g>
          <g>
            <path class="cls-1" d="M475.27,430.94v15.46c0,1.6-.25,3.05-.74,4.36-.5,1.31-1.19,2.43-2.07,3.38-.88.94-1.95,1.67-3.19,2.18-1.25.51-2.63.76-4.16.76-2.03,0-3.84-.54-5.41-1.61s-2.82-2.56-3.74-4.46c-.12-.22-.13-.44-.04-.67.1-.23.25-.4.47-.53l4.1-2.11c.22-.12.44-.14.67-.05.23.08.41.22.53.42.36.58.83,1.1,1.42,1.56.58.46,1.25.69,2,.69.65,0,1.17-.14,1.56-.42.39-.28.68-.62.89-1.02.21-.4.34-.82.42-1.27.07-.45.11-.84.11-1.18v-15.49c0-.24.08-.45.25-.62.17-.17.38-.25.62-.25h5.45c.27,0,.48.08.63.25.16.17.24.38.24.62Z"/>
            <path class="cls-1" d="M478.71,430.94c0-.24.08-.45.25-.62.17-.17.37-.25.61-.25h5.45c.24,0,.45.08.61.25.17.17.25.38.25.62v14.7c0,.94.15,1.72.46,2.34.3.62.68,1.1,1.13,1.45s.93.6,1.44.74c.51.14.97.22,1.39.22s.87-.07,1.38-.22c.51-.15.98-.39,1.42-.74.44-.35.81-.83,1.11-1.45s.46-1.4.46-2.34v-14.7c0-.24.08-.45.25-.62.17-.17.37-.25.61-.25h5.45c.24,0,.45.08.61.25.17.17.25.38.25.62v14.7c0,1.72-.27,3.28-.82,4.68-.54,1.4-1.32,2.6-2.34,3.59-1.01.99-2.24,1.76-3.66,2.31-1.43.54-3.01.82-4.75.82s-3.32-.27-4.75-.82c-1.43-.54-2.65-1.31-3.66-2.31-1.01-.99-1.8-2.19-2.36-3.59-.56-1.4-.83-2.96-.83-4.68v-14.7Z"/>
            <path class="cls-1" d="M518.64,457.07c-1.94,0-3.75-.36-5.45-1.09-1.69-.73-3.18-1.71-4.45-2.94s-2.27-2.69-3.01-4.36c-.74-1.67-1.11-3.45-1.11-5.34s.37-3.67,1.11-5.34,1.74-3.13,3.01-4.37,2.75-2.23,4.45-2.96c1.69-.73,3.51-1.09,5.45-1.09,2.66,0,4.98.54,6.95,1.63s3.58,2.59,4.81,4.5c.12.19.15.42.09.67s-.19.44-.38.56l-4.36,2.79c-.19.12-.41.16-.65.13-.24-.04-.45-.15-.62-.34-.75-.92-1.59-1.66-2.52-2.21s-2.04-.83-3.32-.83c-.92,0-1.79.19-2.6.56-.81.38-1.52.88-2.12,1.51-.6.63-1.08,1.36-1.43,2.2-.35.83-.53,1.7-.53,2.6s.18,1.79.53,2.61c.35.82.83,1.54,1.43,2.16.61.62,1.31,1.11,2.12,1.49.81.38,1.68.56,2.6.56s1.83-.17,2.72-.51c.89-.34,1.61-.89,2.14-1.67.12-.19.13-.37.04-.53-.1-.16-.27-.24-.51-.24h-4.17c-.24,0-.45-.08-.62-.25-.17-.17-.25-.37-.25-.62v-4.32c0-.24.08-.45.25-.62s.38-.25.62-.25h12.49c.24,0,.45.08.63.24.18.16.28.37.31.63.05.41.07.91.07,1.51s-.04,1.2-.11,1.83c-.17,1.67-.64,3.22-1.42,4.65-.78,1.43-1.77,2.66-3,3.7-1.22,1.04-2.62,1.86-4.19,2.45-1.57.59-3.24.89-5.01.89Z"/>
            <path class="cls-1" d="M542.13,437.58v1.52c0,.24.08.45.25.62.17.17.38.25.62.25h9.84c.24,0,.45.08.62.25.17.17.25.38.25.62v5.01c0,.24-.08.45-.25.62s-.38.25-.62.25h-9.84c-.24,0-.45.08-.62.25-.17.17-.25.38-.25.62v1.38c0,.24.08.45.25.62s.38.25.62.25h11.29c.24,0,.45.08.62.25.17.17.25.38.25.62v5.01c0,.24-.08.45-.25.62-.17.17-.38.25-.62.25h-18.48c-.24,0-.45-.08-.62-.25s-.25-.38-.25-.62v-24.83c0-.24.08-.45.25-.62.17-.17.38-.25.62-.25h18.48c.24,0,.45.08.62.25.17.17.25.38.25.62v4.94c0,.24-.08.45-.25.62-.17.17-.38.25-.62.25h-11.29c-.24,0-.45.08-.62.25-.17.17-.25.38-.25.62Z"/>
            <path class="cls-1" d="M583.3,430.9v24.83c0,.24-.08.45-.25.62s-.37.25-.62.25h-5.36c-.24,0-.5-.07-.76-.22s-.47-.31-.62-.51l-9.45-13.32c-.15-.19-.3-.27-.45-.24-.16.04-.24.18-.24.42v13c0,.24-.08.45-.25.62-.17.17-.38.25-.62.25h-5.44c-.24,0-.45-.08-.62-.25s-.26-.38-.26-.62v-24.83c0-.24.08-.45.25-.62s.38-.25.62-.25h5.44c.24,0,.5.07.76.2.27.13.47.3.62.49l9.44,13.32c.14.19.3.28.45.25s.24-.16.24-.4v-13c0-.24.08-.45.25-.62s.38-.25.62-.25h5.37c.24,0,.45.08.62.25.17.17.25.38.25.62Z"/>
            <path class="cls-1" d="M587.36,455.73v-24.83c0-.24.08-.45.25-.62s.38-.25.62-.25h9.91c3.8,0,6.91,1.11,9.33,3.34,1.31,1.21,2.3,2.65,2.98,4.32.68,1.67,1.02,3.55,1.02,5.63s-.34,3.96-1.02,5.64c-.68,1.68-1.67,3.13-2.98,4.34-1.21,1.09-2.6,1.91-4.16,2.47-1.56.56-3.29.83-5.17.83h-9.91c-.24,0-.45-.08-.62-.25-.17-.17-.25-.38-.25-.62ZM595.42,449.92h2.72c.68,0,1.38-.08,2.11-.25.73-.17,1.38-.49,1.96-.96s1.06-1.14,1.43-2,.56-1.98.56-3.36-.19-2.5-.56-3.36c-.38-.86-.86-1.52-1.45-2-.59-.47-1.25-.79-1.96-.96-.71-.17-1.41-.25-2.09-.25h-2.72c-.24,0-.45.08-.62.25s-.25.38-.25.62v11.4c0,.24.08.45.25.62.17.17.38.25.62.25Z"/>
            <path class="cls-1" d="M629.29,455.95l-7.04-7.88c-.17-.19-.31-.27-.42-.22-.11.05-.16.19-.16.44v7.44c0,.24-.08.45-.25.62-.17.17-.38.25-.62.25h-5.45c-.27,0-.48-.08-.64-.25s-.24-.38-.24-.62v-24.83c0-.24.08-.45.24-.62.16-.17.37-.25.64-.25h5.45c.24,0,.45.08.62.25.17.17.25.38.25.62v8.35c0,.24.05.38.15.42.1.04.22-.04.36-.24l6.53-8.68c.15-.19.35-.36.62-.49s.53-.2.8-.2h6.93c.27,0,.44.12.51.34.07.23.04.44-.11.64l-9.55,11.94c-.14.19-.21.42-.2.67.01.25.1.47.27.64.82.9,1.69,1.83,2.61,2.79s1.83,1.94,2.74,2.92c.91.98,1.8,1.95,2.69,2.9s1.72,1.85,2.52,2.67c.17.19.23.41.18.65-.05.24-.21.36-.47.36h-7.51c-.27,0-.54-.06-.82-.18s-.49-.28-.63-.47Z"/>
            <path class="cls-1" d="M648.56,430.86c.1-.22.26-.41.49-.56.23-.16.48-.24.74-.24h5.08c.24,0,.48.08.71.24.23.16.39.34.49.56l10.6,24.68c.1.22.08.45-.05.69-.13.24-.39.36-.78.36h-6.21c-.27,0-.51-.08-.74-.24-.23-.16-.41-.34-.53-.56l-.98-2.18c-.12-.22-.3-.41-.53-.56-.23-.16-.47-.24-.71-.24h-7.66c-.27,0-.51.08-.74.24-.23.16-.39.34-.49.56l-1.02,2.18c-.1.22-.26.41-.49.56-.23.16-.47.24-.71.24h-6.24c-.12,0-.25-.02-.38-.07s-.24-.12-.33-.22c-.08-.1-.14-.22-.16-.36-.02-.15.01-.31.11-.51l10.53-24.58ZM650.7,446.66h3.23c.24,0,.42-.08.53-.24.11-.16.1-.34-.02-.56-.24-.6-.53-1.31-.87-2.12s-.65-1.57-.94-2.27c-.1-.22-.21-.33-.33-.33s-.23.11-.33.33l-1.82,4.39c-.1.22-.1.41,0,.56.1.16.28.24.54.24Z"/>
            <path class="cls-1" d="M678.96,449.45h-3.17c-.24,0-.45.08-.62.25-.17.17-.25.38-.25.62v5.41c0,.24-.08.45-.25.62-.17.17-.37.25-.61.25h-5.45c-.24,0-.45-.08-.61-.25-.17-.17-.25-.38-.25-.62v-24.83c0-.24.08-.45.25-.62.17-.17.38-.25.62-.25h11.11c1.35,0,2.63.25,3.83.76,1.2.51,2.24,1.21,3.12,2.11s1.58,1.94,2.11,3.12.78,2.46.78,3.81-.22,2.62-.65,3.79c-.44,1.17-1.1,2.19-1.98,3.05-.88.86-1.99,1.54-3.31,2.03-1.32.5-2.87.74-4.64.74ZM679.22,436.71h-3.43c-.24,0-.45.08-.62.25-.17.17-.26.37-.26.61v4.26c0,.24.08.45.26.61.17.17.38.25.62.25h3.9c.92,0,1.6-.29,2.02-.88.43-.59.64-1.26.64-2,0-.38-.07-.76-.2-1.14-.13-.37-.33-.7-.6-.99-.27-.29-.6-.52-.99-.7-.39-.18-.84-.27-1.35-.27Z"/>
            <path class="cls-1" d="M698.08,437.58v1.52c0,.24.08.45.25.62.17.17.38.25.62.25h9.84c.24,0,.45.08.62.25.17.17.25.38.25.62v5.01c0,.24-.08.45-.25.62s-.38.25-.62.25h-9.84c-.24,0-.45.08-.62.25-.17.17-.25.38-.25.62v1.38c0,.24.08.45.25.62s.38.25.62.25h11.29c.24,0,.45.08.62.25.17.17.25.38.25.62v5.01c0,.24-.08.45-.25.62-.17.17-.38.25-.62.25h-18.48c-.24,0-.45-.08-.62-.25s-.25-.38-.25-.62v-24.83c0-.24.08-.45.25-.62.17-.17.38-.25.62-.25h18.48c.24,0,.45.08.62.25.17.17.25.38.25.62v4.94c0,.24-.08.45-.25.62-.17.17-.38.25-.62.25h-11.29c-.24,0-.45.08-.62.25-.17.17-.25.38-.25.62Z"/>
            <path class="cls-1" d="M734.09,450.79v4.94c0,.24-.08.45-.25.62-.17.17-.38.25-.62.25h-18.11c-.27,0-.48-.08-.63-.25-.16-.17-.24-.38-.24-.62v-24.83c0-.24.08-.45.24-.62.16-.17.37-.25.63-.25h5.45c.24,0,.45.08.62.25.17.17.25.38.25.62v18.15c0,.24.08.45.24.62.16.17.37.25.63.25h10.93c.24,0,.45.08.62.25s.25.38.25.62Z"/>
            <path class="cls-1" d="M754.96,450.79v4.94c0,.24-.08.45-.25.62-.17.17-.38.25-.62.25h-18.11c-.27,0-.48-.08-.63-.25-.16-.17-.24-.38-.24-.62v-24.83c0-.24.08-.45.24-.62.16-.17.37-.25.63-.25h5.45c.24,0,.45.08.62.25.17.17.25.38.25.62v18.15c0,.24.08.45.24.62.16.17.37.25.63.25h10.93c.24,0,.45.08.62.25s.25.38.25.62Z"/>
            <path class="cls-1" d="M763.16,437.58v1.52c0,.24.08.45.25.62.17.17.38.25.62.25h9.84c.24,0,.45.08.62.25.17.17.25.38.25.62v5.01c0,.24-.08.45-.25.62s-.38.25-.62.25h-9.84c-.24,0-.45.08-.62.25-.17.17-.25.38-.25.62v1.38c0,.24.08.45.25.62s.38.25.62.25h11.29c.24,0,.45.08.62.25.17.17.25.38.25.62v5.01c0,.24-.08.45-.25.62-.17.17-.38.25-.62.25h-18.48c-.24,0-.45-.08-.62-.25s-.25-.38-.25-.62v-24.83c0-.24.08-.45.25-.62.17-.17.38-.25.62-.25h18.48c.24,0,.45.08.62.25.17.17.25.38.25.62v4.94c0,.24-.08.45-.25.62-.17.17-.38.25-.62.25h-11.29c-.24,0-.45.08-.62.25-.17.17-.25.38-.25.62Z"/>
          </g>
        </g>
        <g>
          <path class="cls-2" d="M461.07,482.5c1.31.85,2.6,1.51,3.88,2,1.28.48,2.48.73,3.59.73s1.88-.15,2.43-.45c.56-.3.83-.76.83-1.36,0-.31-.12-.56-.36-.74-.24-.18-.56-.33-.96-.45-.4-.12-.87-.22-1.4-.29-.53-.07-1.08-.17-1.63-.29-.53-.1-1.16-.21-1.87-.34s-1.45-.33-2.2-.58c-.75-.25-1.5-.58-2.23-.96s-1.4-.88-1.98-1.49c-.58-.6-1.05-1.33-1.4-2.16s-.53-1.82-.53-2.96c0-1.67.33-3.05.98-4.14s1.48-1.95,2.49-2.6c1-.64,2.12-1.09,3.36-1.34s2.43-.38,3.59-.38c2.03,0,3.85.3,5.46.89,1.61.59,3.15,1.46,4.63,2.6.19.17.3.38.33.62s-.04.46-.18.65l-2.83,4.03c-.15.19-.34.31-.58.36s-.46,0-.65-.15c-1.23-.77-2.38-1.33-3.45-1.65-1.07-.33-2.05-.49-2.94-.49-.27,0-.58,0-.93.02-.35.01-.68.06-1,.14-.32.08-.58.22-.78.42-.21.19-.31.46-.31.8s.25.64.76.91c.51.27,1.09.5,1.74.69.65.19,1.28.34,1.89.45.6.11.99.18,1.16.2.87.17,1.83.42,2.87.74,1.04.33,2.01.81,2.92,1.45.91.64,1.67,1.48,2.29,2.5s.92,2.32.92,3.87c0,1.45-.25,2.7-.76,3.76-.51,1.05-1.22,1.92-2.12,2.6-.91.68-2,1.18-3.27,1.51-1.27.33-2.68.49-4.23.49-1.26,0-2.43-.1-3.52-.31-1.09-.21-2.11-.49-3.05-.85-.94-.36-1.82-.79-2.63-1.29-.81-.5-1.55-1.02-2.23-1.58-.19-.15-.3-.34-.33-.6-.02-.25.04-.48.18-.67l2.8-4.03c.14-.19.34-.31.58-.36.24-.05.46-.01.65.11Z"/>
          <path class="cls-2" d="M492.48,484.46h-3.17c-.24,0-.45.08-.62.25-.17.17-.25.38-.25.62v5.41c0,.24-.08.45-.25.62-.17.17-.37.25-.61.25h-5.45c-.24,0-.45-.08-.61-.25-.17-.17-.25-.38-.25-.62v-24.83c0-.24.08-.45.25-.62.17-.17.38-.25.62-.25h11.11c1.35,0,2.63.25,3.83.76,1.2.51,2.24,1.21,3.12,2.11s1.58,1.94,2.11,3.12.78,2.46.78,3.81-.22,2.62-.65,3.79c-.44,1.17-1.1,2.19-1.98,3.05-.88.86-1.99,1.54-3.31,2.03-1.32.5-2.87.74-4.64.74ZM492.75,471.71h-3.43c-.24,0-.45.08-.62.25-.17.17-.26.37-.26.61v4.26c0,.24.08.45.26.61.17.17.38.25.62.25h3.9c.92,0,1.6-.29,2.02-.88.43-.59.64-1.26.64-2,0-.38-.07-.76-.2-1.14-.13-.37-.33-.7-.6-.99-.27-.29-.6-.52-.99-.7-.39-.18-.84-.27-1.35-.27Z"/>
          <path class="cls-2" d="M511.6,472.59v1.52c0,.24.08.45.25.62.17.17.38.25.62.25h9.84c.24,0,.45.08.62.25.17.17.25.38.25.62v5.01c0,.24-.08.45-.25.62s-.38.25-.62.25h-9.84c-.24,0-.45.08-.62.25-.17.17-.25.38-.25.62v1.38c0,.24.08.45.25.62s.38.25.62.25h11.29c.24,0,.45.08.62.25.17.17.25.38.25.62v5.01c0,.24-.08.45-.25.62-.17.17-.38.25-.62.25h-18.48c-.24,0-.45-.08-.62-.25s-.25-.38-.25-.62v-24.83c0-.24.08-.45.25-.62.17-.17.38-.25.62-.25h18.48c.24,0,.45.08.62.25.17.17.25.38.25.62v4.94c0,.24-.08.45-.25.62-.17.17-.38.25-.62.25h-11.29c-.24,0-.45.08-.62.25-.17.17-.25.38-.25.62Z"/>
          <path class="cls-2" d="M550.48,466.09l-9.08,14.7c-.12.22-.23.48-.33.8-.1.31-.15.59-.15.83v8.31c0,.24-.08.45-.25.62-.17.17-.37.25-.61.25h-5.45c-.24,0-.45-.08-.61-.25-.17-.17-.25-.38-.25-.62v-8.28c0-.24-.04-.53-.13-.85-.08-.33-.19-.59-.31-.78-1.45-2.49-2.93-4.94-4.45-7.33-1.51-2.4-3.02-4.86-4.52-7.41-.12-.22-.14-.44-.07-.67.07-.23.23-.34.47-.34h6.46c.24,0,.49.07.74.22.25.15.44.33.56.54l4.45,7.77c.12.19.27.29.43.29s.31-.1.43-.29l4.41-7.77c.12-.22.31-.4.56-.54.25-.14.5-.22.74-.22h6.53c.24,0,.42.08.53.25.11.17.07.42-.13.76Z"/>
          <path class="cls-2" d="M558.5,472.59v1.52c0,.24.08.45.25.62.17.17.38.25.62.25h9.84c.24,0,.45.08.62.25.17.17.25.38.25.62v5.01c0,.24-.08.45-.25.62s-.38.25-.62.25h-9.84c-.24,0-.45.08-.62.25-.17.17-.25.38-.25.62v1.38c0,.24.08.45.25.62s.38.25.62.25h11.29c.24,0,.45.08.62.25.17.17.25.38.25.62v5.01c0,.24-.08.45-.25.62-.17.17-.38.25-.62.25h-18.48c-.24,0-.45-.08-.62-.25s-.25-.38-.25-.62v-24.83c0-.24.08-.45.25-.62.17-.17.38-.25.62-.25h18.48c.24,0,.45.08.62.25.17.17.25.38.25.62v4.94c0,.24-.08.45-.25.62-.17.17-.38.25-.62.25h-11.29c-.24,0-.45.08-.62.25-.17.17-.25.38-.25.62Z"/>
          <path class="cls-2" d="M581.04,491.61h-5.44c-.24,0-.45-.08-.62-.25s-.26-.38-.26-.62v-24.83c0-.24.08-.45.25-.62s.38-.25.62-.25h11.29c1.4,0,2.7.24,3.88.71s2.2,1.13,3.03,1.98c.83.85,1.49,1.85,1.96,3.01.47,1.16.71,2.44.71,3.85,0,.78-.09,1.54-.27,2.31-.18.76-.44,1.48-.78,2.16s-.74,1.29-1.2,1.83c-.46.54-.98,1-1.56,1.36-.19.14-.32.32-.38.53-.06.21-.02.41.13.6.92,1.21,1.89,2.46,2.9,3.74,1.02,1.28,1.92,2.46,2.72,3.52.14.19.18.41.11.64-.07.23-.23.34-.47.34h-6.75c-.24,0-.5-.07-.78-.2s-.49-.3-.64-.49c-.77-1.02-1.54-2.04-2.29-3.09-.76-1.04-1.51-2.09-2.26-3.16-.14-.19-.35-.36-.61-.49-.26-.13-.52-.2-.76-.2h-.79c-.24,0-.45.08-.61.25-.17.17-.25.38-.25.62v5.88c0,.24-.08.45-.25.62-.17.17-.38.25-.62.25ZM582.78,477.3h3.83c.29,0,.59-.05.9-.16.31-.11.6-.28.87-.51.26-.23.48-.51.65-.85s.25-.74.25-1.2c0-.24-.04-.53-.13-.85-.08-.33-.23-.64-.43-.94-.21-.3-.48-.56-.83-.76-.35-.21-.78-.31-1.28-.31h-3.83c-.24,0-.45.08-.61.25-.17.17-.25.38-.25.62v3.85c0,.24.08.45.25.62.17.17.37.25.61.25Z"/>
        </g>
      </g>
    </g>
  </g>
</svg>